<?xml version="1.0" encoding="UTF-8" standalone="no"?>
<!-- Created with Inkscape (http://www.inkscape.org/) -->

<svg
   width="68.736938"
   height="60.942474"
   viewBox="0 0 68.736938 60.942474"
   version="1.1"
   id="svg1"
   xml:space="preserve"
   xmlns="http://www.w3.org/2000/svg"
   xmlns:svg="http://www.w3.org/2000/svg"><defs
     id="defs1" /><g
     id="layer1"
     transform="translate(-1352.215,-410.28256)"><g
       id="g1"
       transform="translate(1497,400.99999)"><g
         id="g2"
         transform="translate(-56.480567,-9.2374758)"
         style="fill:#89dc4e;fill-opacity:1"><path
           fill="#89dc4e"
           d="m -69.697158,36.15933 c 3.839046,-0.04931 7.769234,-0.008 11.614157,-0.0074 l 19.88104,0.01086 -0.01116,3.842034 -19.170825,-10e-5 -0.005,1.961011 -0.03994,19.198915 c -1.249102,-0.0076 -2.491928,0.0074 -3.742923,-0.01205 l -0.01992,-21.144486 -8.498873,-0.0052 z"
           id="path31"
           style="fill:#89dc4e;fill-opacity:1;stroke-width:0.0996094" /><path
           fill="#89dc4e"
           d="m -53.419189,47.336699 12.037995,0.02142 -0.0066,3.793325 -8.088782,0.0021 c 1e-4,0.668579 -0.0039,1.337257 -0.01215,2.005835 l -0.01255,8.004014 -3.900903,-0.0018 z"
           id="path32"
           style="fill:#89dc4e;fill-opacity:1;stroke-width:0.0996094" /><path
           fill="#89dc4e"
           d="m -88.265745,66.110581 2.646921,-0.004 0.04134,10.598938 6.612669,0.0063 c 1.266833,0.0016 2.63188,-0.01783 3.890046,0.02958 l 0.0096,2.705392 -8.421278,0.0058 -2.340024,0.0068 c -0.465375,0.0011 -0.950473,0.01474 -1.412162,-0.03835 -0.392561,-0.04512 -0.970993,-0.627241 -0.99968,-1.011036 -0.09035,-1.205672 -0.04084,-2.447502 -0.03945,-3.660844 z"
           id="path33"
           style="fill:#89dc4e;fill-opacity:1;stroke-width:0.0996094" /><path
           fill="#89dc4e"
           d="m -32.787293,18.580761 c 3.826096,-0.03546 7.656576,-8.97e-4 11.482672,-0.02321 0.569368,0.0033 0.961928,-0.0261 1.375208,0.429416 0.477029,0.525937 0.34664,1.470733 0.342756,2.151463 l -0.0081,2.356958 c 0.01345,2.775516 0.0096,5.551032 -0.01145,8.326449 -0.815601,0.03407 -1.834506,0.0066 -2.666444,0.008 l -0.01763,-10.521243 c -3.449174,0.0037 -7.063103,0.04552 -10.50152,-0.02948 z"
           id="path34"
           style="fill:#89dc4e;fill-opacity:1;stroke-width:0.0996094" /><path
           fill="#89dc4e"
           d="m -22.211664,66.118351 2.623911,-0.0077 c -0.05528,4.055696 0.0765,8.237099 -0.06505,12.296481 -0.01504,0.430811 -0.538488,0.814706 -0.877658,1.026176 -0.967506,0.05479 -2.342116,0.01574 -3.342693,0.01544 l -6.294019,-0.0033 -2.610961,-0.0095 0.0024,-2.698518 c 1.096102,-0.0767 2.706687,-0.03118 3.833468,-0.02998 l 6.654406,0.0023 c 0.01006,-1.141125 -0.07859,-10.383383 0.0762,-10.591467 z"
           id="path35"
           style="fill:#89dc4e;fill-opacity:1;stroke-width:0.0996094" /><path
           fill="#89dc4e"
           d="m -86.783258,18.556755 c 3.7743,-0.07122 7.92343,-0.0248 11.711376,0.02172 -0.01404,0.906346 -0.01793,1.812791 -0.01156,2.719237 l -10.531801,0.01584 0.0047,1.53259 -0.01126,8.982178 -2.647418,0.0021 c -0.04751,-2.606679 -0.01315,-5.331095 -0.01903,-7.946141 l -0.0049,-2.580979 c -0.0016,-1.277192 -0.235776,-2.681485 1.509879,-2.74653 z"
           id="path36"
           style="fill:#89dc4e;fill-opacity:1;stroke-width:0.0996094" /><path
           fill="#89dc4e"
           d="m -88.27471,45.945853 c 0.854051,-0.01673 1.801337,-0.0051 2.652599,0.01414 -0.01245,1.601918 0.08726,3.597095 -0.01504,5.167536 -0.862419,0.03008 -1.777829,0.01763 -2.644331,0.01962 0.02759,-1.710393 0.0029,-3.486129 0.0068,-5.201304 z"
           id="path37"
           style="fill:#89dc4e;fill-opacity:1;stroke-width:0.0996094" /><path
           fill="#89dc4e"
           d="m -22.270334,45.935295 c 0.889014,-0.0086 1.778128,-0.0073 2.667241,0.0038 -0.0249,1.707903 -7.97e-4,3.440907 -0.02122,5.159667 -0.428519,0.05608 -2.125067,0.02042 -2.640246,0.02032 0.01663,-1.713182 -0.0046,-3.466607 -0.0058,-5.183773 z"
           id="path38"
           style="fill:#89dc4e;fill-opacity:1;stroke-width:0.0996094" /><path
           fill="#89dc4e"
           d="m -88.263753,38.26318 2.590044,0.007 -2.99e-4,3.03998 -2.586956,-0.0099 z"
           id="path39"
           style="fill:#89dc4e;fill-opacity:1;stroke-width:0.0996094" /><path
           fill="#89dc4e"
           d="m -22.202002,38.26557 2.582573,4.98e-4 c -0.0015,0.905649 0.03825,2.161923 -0.02142,3.035398 l -2.558368,-0.0032 z"
           id="path40"
           style="fill:#89dc4e;fill-opacity:1;stroke-width:0.0996094" /><path
           fill="#89dc4e"
           d="m -88.262956,55.95361 c 0.862418,-0.006 1.725036,-0.0076 2.587454,-0.0049 -0.0072,0.996592 0.01066,1.989299 -0.0084,2.987186 -0.858832,0.01733 -1.717964,0.01664 -2.576796,-0.002 z"
           id="path41"
           style="fill:#89dc4e;fill-opacity:1;stroke-width:0.0996094" /><path
           fill="#89dc4e"
           d="m -22.180386,55.938668 c 0.838013,-0.01653 1.720951,-0.0018 2.562451,-0.0011 -0.01962,0.990715 -0.01046,2.008823 -0.01315,3.001729 l -2.556475,-0.0047 z"
           id="path42"
           style="fill:#89dc4e;fill-opacity:1;stroke-width:0.0996094" /></g></g></g></svg>
