<?xml version="1.0" encoding="UTF-8" standalone="no"?>
<!-- Created with Inkscape (http://www.inkscape.org/) -->

<svg
   width="229.68225"
   height="61.219391"
   viewBox="0 0 229.68225 61.219391"
   version="1.1"
   id="svg1"
   xml:space="preserve"
   xmlns="http://www.w3.org/2000/svg"
   xmlns:svg="http://www.w3.org/2000/svg"><defs
     id="defs1" /><g
     id="layer1"
     transform="translate(-1065.0065,-417)"><g
       id="g1"
       transform="translate(1497,400.99999)"><g
         id="g3"
         transform="translate(-52.21302,-44.474942)"><path
           fill="#89dc4e"
           d="m -152.45782,87.746397 2.34303,0.01565 -0.0132,5.719196 -2.33573,0.02172 0.006,-5.756569 z"
           id="path37-4"
           style="fill:#89dc4e;fill-opacity:1;stroke-width:0.0984866"
           transform="translate(2e-5)" /><path
           d="m -227.59753,81.771827 -4.44531,0.03125 c -0.89253,0.897407 -1.90577,1.958469 -2.84766,2.779297 -0.0414,3.346485 -0.0433,6.694327 -0.004,10.041015 l 2.85742,2.711583 4.54492,-0.01953 c 0.741,-0.744047 2.09889,-2.019067 2.86914,-2.64713 -0.001,-3.249594 0.0553,-6.741469 -0.0156,-9.974609 -0.9624,-0.954485 -1.97607,-2.0005 -2.95899,-2.921875 z m -0.52734,1.236328 c 0.87486,0.762734 1.43011,1.306125 2.22656,2.152344 -0.0301,2.9835 -0.0384,5.967469 -0.0215,8.951172 -0.78041,0.949203 -1.18978,1.284359 -2.13086,2.107422 -0.98211,0.0782 -2.42651,0.04718 -3.44336,0.05469 -0.86246,-0.780203 -1.36744,-1.237953 -2.10742,-2.125 -0.0764,-2.98614 -0.0183,-6.090656 0,-9.085937 0.67986,-0.766797 1.31114,-1.344094 2.0625,-2.041016 z"
           style="fill:#89dc4e;fill-opacity:1;stroke-width:0.203125"
           id="path10" /><path
           d="m -211.70688,81.795062 -7.3437,-10e-7 v 15.52038 h 1.35959 l -0.008,-7.192199 3.69141,-0.0098 3.8847,7.201999 h 1.6308 l -3.6992,-7.201999 h 1.35341 l 2.34579,-2.193226 -0.041,-3.3125 z m -5.9841,1.20616 5.9841,0.0033 1.84917,1.60319 v 3.31255 l -1.17406,1.04735 -6.6557,0.04888 z"
           style="fill:#89dc4e;fill-opacity:1;stroke-width:0.203125"
           id="path48" /><path
           fill="#95df56"
           d="m -171.40806,60.536612 c 4.7775,-0.103594 10.63157,-0.05748 15.41313,-8.13e-4 1.66359,2.002407 4.00359,4.205297 5.85812,6.150219 0.0325,2.112703 0.0305,4.225813 -0.004,6.338516 l -2.25875,0.0061 0.0102,-5.457968 c -1.61078,-1.5795 -3.17485,-3.213844 -4.79781,-4.802688 -4.78157,0.106235 -9.45954,-0.0033 -14.23094,0.0073 z"
           id="path6"
           style="fill:#89dc4e;fill-opacity:1;stroke-width:0.203125" /><path
           fill="#95df56"
           d="m -375.07398,60.614409 c 1.93944,-0.135485 4.40781,-0.05302 6.39539,-0.04327 l 8.75103,0.0055 -10e-4,2.216704 c -3.43017,-0.09547 -10.30128,0.149703 -13.99287,0.03758 -0.0778,0.05017 -0.1558,0.100344 -0.23359,0.150515 -1.09038,1.086719 -2.24128,2.339594 -3.31155,3.462469 -0.0699,2.136875 -0.0244,4.419188 -0.0134,6.569063 l -2.27398,-0.0033 -0.0266,-7.504454 c 1.38572,-1.215703 3.44642,-3.507359 4.70681,-4.890843 z"
           id="path7"
           style="fill:#89dc4e;fill-opacity:1;stroke-width:0.203125" /><path
           fill="#95df56"
           d="m -379.68309,108.86106 2.24291,-0.0207 0.0294,10.55478 14.29391,0.0408 -10e-6,2.25839 h -15.4448 l -1.1855,-1.12194 v -11.73203 z"
           id="path8"
           style="fill:#89dc4e;fill-opacity:1;stroke-width:0.203125" /><path
           fill="#95df56"
           d="m -152.39948,108.84036 h 2.2724 v 11.7291 l -1.1269,1.12487 h -15.3421 v -2.23444 h 14.1966 z"
           id="path9"
           style="fill:#89dc4e;fill-opacity:1;stroke-width:0.203125" /><path
           fill="#fefefe"
           d="m -200.63307,81.793237 4.57376,-0.0323 2.99393,3.796815 h -1.3203 l -2.14284,-2.558971 -3.44257,0.0065 -2.19009,2.052984 -0.0358,9.038656 2.19233,2.165313 3.49639,-0.0087 2.15109,-2.162671 0.002,-1.905516 -0.0305,-1.467375 h -3.52421 v -1.17745 l 4.84249,-0.0084 0.004,5.075485 -2.80922,2.707829 -4.70499,0.01605 -2.88437,-2.782376 -0.0258,-9.945204 2.85452,-2.81064 z"
           id="path13"
           style="fill:#89dc4e;fill-opacity:1;stroke-width:0.203125" /><path
           fill="#95df56"
           d="m -343.48648,88.967612 v 1.75036 l -12.0526,6.59747 v -2.054846 l 9.7152,-5.417804 -9.70922,-5.840368 -0.006,-2.207362 z"
           id="path14"
           style="fill:#89dc4e;fill-opacity:1;stroke-width:0.203125" /><path
           fill="#fefefe"
           d="m -297.81808,81.795062 h 9.5688 v 1.20941 h -8.2664 v 5.96314 h 7.0303 v 1.14583 h -7.0303 v 6.1685 h 8.2664 v 1.0335 h -9.5658 z"
           id="path15"
           style="stroke-width:0.203125" /><path
           fill="#fefefe"
           d="m -187.10958,81.795062 h 9.562 v 1.20616 l -8.2194,0.0033 -0.0101,5.960499 6.97733,0.0026 v 1.14583 h -6.9672 v 6.1685 h 8.2194 v 1.0335 h -9.562 z"
           id="path16"
           style="fill:#89dc4e;fill-opacity:1;stroke-width:0.203125" /><path
           fill="#fefefe"
           d="m -281.29066,81.795062 4.41118,7.17255 4.09348,-7.172531 1.29072,-10e-7 -4.09348,7.745442 4.09348,7.774938 h -1.29072 l -4.09348,-7.202018 -4.41118,7.202018 h -1.29072 l 4.41118,-7.774938 -4.41118,-7.74546 z"
           id="path17"
           style="stroke-width:0.203125" /><path
           fill="#fefefe"
           d="m -249.10662,81.795065 9.32514,-3e-6 v 1.20941 c 0,0 -6.97681,0.0047 -8.0093,-1e-6 l -0.003,5.963141 h 7.0411 v 1.14583 l -7.04211,-1e-6 0.0223,7.188993 -1.34369,0.01301 -2e-5,-5.216251 z"
           id="path20"
           style="fill:#89dc4e;fill-opacity:1;stroke-width:0.203125" /><path
           fill="#fefefe"
           d="m -314.51449,81.807862 10.76851,-0.0128 v 1.20616 h -4.7504 v 14.31422 h -1.3146 v -14.31097 h -4.7029 v -1.20941 z"
           id="path21"
           style="stroke-width:0.203125" /><path
           fill="#fefefe"
           d="m -266.02368,81.806643 10.8081,-0.01158 v 1.20616 l -4.84069,0.0026 -1e-5,14.311619 -1.2814,-4.2e-5 V 83.001181 l -4.68611,-10e-7 2e-5,-1.194577 z"
           id="path22"
           style="stroke-width:0.203125" /><path
           fill="#95df56"
           d="m -340.9762,97.41294 c 4.02838,-0.09364 8.50099,-0.03453 12.54683,0.01036 l -0.015,1.769422 c -4.13481,0.04652 -8.38419,-0.01178 -12.52834,-0.01889 z"
           id="path23"
           style="fill:#89dc4e;fill-opacity:1;stroke-width:0.203125" /><path
           fill="#95df56"
           d="m -152.39759,79.431096 2.29531,-0.01198 -0.004,3.330437 -2.30344,0.0018 z"
           id="path25"
           style="fill:#89dc4e;fill-opacity:1;stroke-width:0.203125" /><path
           fill="#95df56"
           d="m -152.39556,98.886003 2.29735,-0.0069 -0.008,3.318047 -2.29328,-6.1e-4 z"
           id="path26"
           style="fill:#89dc4e;fill-opacity:1;stroke-width:0.203125" /><path
           fill="#95df56"
           d="m -379.7294,98.90794 2.327,-0.01361 -0.0268,3.24959 -2.32396,0.0185 z"
           id="path27"
           style="fill:#89dc4e;fill-opacity:1;stroke-width:0.203125" /><path
           fill="#95df56"
           d="m -377.41865,79.476015 -3e-5,3.278027 h -2.3285 v -3.29003 z"
           id="path28"
           style="fill:#89dc4e;fill-opacity:1;stroke-width:0.203125" /><path
           style="fill:#000000"
           d="m -260.05627,83.542241 h -1.3659"
           id="path43" /><path
           style="fill:none;stroke:#000000;stroke-width:0.1;stroke-dasharray:none;stroke-opacity:1"
           d="m -275.58876,89.540522 h -1.29073"
           id="path44" /><path
           style="fill:none;stroke:#000000;stroke-width:0.1;stroke-dasharray:none;stroke-opacity:1"
           d="m -276.87948,89.540522 h -1.29072"
           id="path47" /><path
           fill="#89dc4e"
           d="m -379.74726,87.746397 2.34303,0.01565 -0.0132,5.719196 -2.33573,0.02172 0.006,-5.756569 z"
           id="path49"
           style="fill:#89dc4e;fill-opacity:1;stroke-width:0.0984866" /></g></g></g></svg>
